<svg width="188" height="27" viewBox="0 0 188 27" fill="none" xmlns="http://www.w3.org/2000/svg">
<path d="M7.54727 18.4206C7.54727 18.5996 7.54727 18.7786 7.54727 18.9602C7.54727 21.1368 7.54727 23.316 7.54727 25.4925C7.54727 25.9084 7.57945 25.9057 7.12366 25.9031C4.88763 25.9031 2.6516 25.9031 0.41825 25.9031C0 25.9031 0 25.9505 0 25.4925C0 18.6891 0 11.8883 0 5.08483C0 4.69531 0.00536218 4.68742 0.383396 4.68742C2.37813 4.68742 4.37286 4.69531 6.36759 4.67689C6.69469 4.67426 6.81533 4.83217 6.95475 5.05851C8.60094 7.72725 10.2525 10.3934 11.9014 13.0568C11.9872 13.1963 12.0461 13.3542 12.2204 13.4832C12.333 13.3042 12.2874 13.12 12.2874 12.9516C12.2901 10.4039 12.2874 7.85359 12.2874 5.30591C12.2874 5.2059 12.2982 5.10326 12.2874 5.00324C12.258 4.76374 12.3464 4.65847 12.6011 4.68479C12.754 4.70058 12.9095 4.68742 13.065 4.68742C15.1294 4.68742 17.1912 4.68742 19.2556 4.68742C19.4245 4.68742 19.5988 4.65847 19.7757 4.72163C19.8776 4.83217 19.8294 4.97166 19.8294 5.09799C19.832 11.883 19.8294 18.6707 19.8294 25.4557C19.8294 25.9452 19.8722 25.9031 19.3414 25.9031C17.3976 25.9031 15.4538 25.8952 13.5127 25.911C13.2017 25.911 13.0194 25.8189 12.8424 25.5715C11.2177 23.3107 9.58222 21.0578 7.94675 18.8049C7.84755 18.668 7.74567 18.5364 7.64647 18.4022C7.61162 18.4101 7.57408 18.4154 7.53923 18.4233L7.54727 18.4206Z" fill="#170F49"/>
<path d="M22.7917 4.73198C22.9419 4.65566 23.0974 4.68724 23.2502 4.68724C27.7571 4.68724 32.264 4.68724 36.7709 4.68724C36.8728 4.68724 36.9774 4.68724 37.0792 4.68724C37.2321 4.68724 37.2884 4.76356 37.283 4.90832C37.2776 5.12677 37.283 5.34785 37.283 5.56629C37.283 7.0691 37.283 8.57192 37.283 10.0747C37.283 10.4564 37.275 10.4642 36.8835 10.4642C34.8888 10.4642 32.8914 10.4642 30.8966 10.4642C30.776 10.4642 30.6554 10.4695 30.5347 10.4642C30.3631 10.4564 30.288 10.5248 30.2907 10.7011C30.2988 11.2407 30.2961 11.7828 30.2907 12.3224C30.2907 12.475 30.3578 12.5329 30.5052 12.5277C30.6259 12.5224 30.7465 12.5277 30.8672 12.5277C32.4678 12.5277 34.0657 12.5277 35.6663 12.5277C36.0443 12.5277 36.0658 12.4829 36.0658 12.9093C36.0631 14.5805 36.0631 16.2518 36.0658 17.9257C36.0658 18.331 36.0712 18.3073 35.669 18.3073C34.0174 18.3073 32.3659 18.3073 30.7143 18.3073C30.2988 18.3073 30.2961 18.3126 30.2934 18.7179C30.2907 19.0547 30.2934 19.3943 30.2934 19.7311C30.2934 20.1522 30.2639 20.1286 30.7251 20.1286C32.3766 20.1286 34.0282 20.1286 35.6797 20.1286C36.0926 20.1286 36.5055 20.1259 36.9184 20.1286C37.275 20.1338 37.283 20.1365 37.283 20.4918C37.2857 21.8419 37.283 23.1947 37.283 24.5449C37.283 24.916 37.2776 25.2871 37.283 25.6582C37.2857 25.8266 37.2321 25.9108 37.0498 25.9029C36.9291 25.895 36.8085 25.9029 36.6878 25.9029C32.2318 25.9029 27.7759 25.9029 23.3226 25.9029C22.6496 25.9029 22.7542 25.9793 22.7542 25.3397C22.7542 18.6363 22.7542 11.9328 22.7542 5.22678C22.7542 5.06097 22.7193 4.8899 22.7863 4.72935L22.7917 4.73198Z" fill="#170F49"/>
<path d="M61.1748 4.73667C61.3571 4.65245 61.5314 4.68666 61.7003 4.68666C66.4485 4.68666 71.1967 4.68666 75.9422 4.68666C76.5884 4.68666 76.4972 4.64982 76.4972 5.22357C76.4999 6.79481 76.4972 8.36342 76.4972 9.93466C76.4972 10.5163 76.5481 10.4663 75.9315 10.4663C74.9502 10.4663 73.9716 10.4663 72.9903 10.4663C72.6043 10.4663 72.5989 10.4716 72.5989 10.8506C72.5989 12.9455 72.5989 15.0379 72.5989 17.1329C72.5989 19.8674 72.5989 22.6046 72.5989 25.3391C72.5989 25.4576 72.5935 25.576 72.5989 25.6944C72.6069 25.8471 72.5372 25.9076 72.3871 25.9024C72.3013 25.8997 72.2155 25.9024 72.1297 25.9024C69.9285 25.9024 67.7274 25.9024 65.5235 25.9024C64.9926 25.9024 65.0597 25.9497 65.0597 25.4418C65.0597 20.6807 65.0597 15.917 65.0597 11.1559C65.0597 11.0558 65.0597 10.9532 65.0597 10.8532C65.0543 10.4742 65.0516 10.4689 64.6629 10.4663C63.6467 10.4637 62.6333 10.4663 61.6172 10.4663C61.1587 10.4663 61.1533 10.4637 61.1533 10.0399C61.1533 8.35026 61.1533 6.66321 61.1533 4.97354C61.1533 4.89195 61.1667 4.81036 61.1721 4.73667H61.1748Z" fill="#170F49"/>
<path d="M49.1664 21.8763C48.5819 22.5843 48.1207 23.3765 47.5926 24.124C47.2199 24.6503 46.8606 25.1872 46.5067 25.7241C46.3861 25.9084 46.2547 26.0084 46.0107 26.0005C43.638 25.9321 41.2679 25.8768 38.8951 25.8136C38.8629 25.8136 38.8308 25.7926 38.7879 25.7794C38.7342 25.5952 38.8763 25.4689 38.9541 25.332C40.6887 22.2053 42.4261 19.0812 44.1634 15.9546C44.2037 15.8809 44.2385 15.8019 44.2921 15.7361C44.52 15.444 44.4771 15.1808 44.2948 14.8623C42.9301 12.4805 41.5842 10.0854 40.2356 7.69567C39.7021 6.75345 39.1739 5.8086 38.6484 4.87691C38.7664 4.7111 38.9165 4.76374 39.0452 4.76111C41.4019 4.72163 43.7559 4.69005 46.1126 4.64794C46.3646 4.64267 46.5121 4.69005 46.6703 4.93481C47.48 6.1876 48.3325 7.41406 49.1717 8.64842C49.279 8.81949 49.3835 8.9932 49.4961 9.16164C50.7509 11.0303 52.011 12.8963 53.2577 14.7702C53.6599 15.3755 53.676 15.1545 53.2658 15.7624C51.9949 17.6416 50.7133 19.5129 49.4398 21.3894C49.3353 21.5421 49.2039 21.6816 49.1717 21.8737L49.1664 21.8763Z" fill="url(#paint0_linear_2102_8238)"/>
<path d="M49.1664 21.8763C49.1985 21.6842 49.3293 21.5445 49.4339 21.3919C50.7074 19.5153 51.9916 17.6441 53.2598 15.7649C53.6727 15.1543 53.6539 15.378 53.2518 14.7727C52.005 12.8988 50.7449 11.0327 49.4902 9.1641C49.3776 8.99566 49.273 8.82195 49.1658 8.65088C50.0103 7.40073 50.8736 6.15848 51.6887 4.8899C51.8281 4.67409 51.9434 4.63724 52.1498 4.63987C52.8201 4.65303 53.4904 4.6583 54.1606 4.66883C55.898 4.69514 57.6353 4.7241 59.37 4.75041C59.4665 4.75041 59.5657 4.75831 59.6649 4.76357C59.673 4.9636 59.563 5.0794 59.4907 5.20573C57.6782 8.42191 55.8658 11.6407 54.0373 14.849C53.8577 15.1648 53.847 15.3938 54.0266 15.7175C55.8336 18.9363 57.6219 22.1683 59.4156 25.395C59.4799 25.5108 59.5389 25.6266 59.5952 25.7345C59.488 25.845 59.3807 25.8108 59.2842 25.8135C57.016 25.8714 54.7451 25.9187 52.4769 25.9924C52.115 26.0056 51.9273 25.8793 51.7396 25.5976C51.0077 24.4949 50.2543 23.4079 49.5089 22.313C49.4044 22.1604 49.3105 21.9972 49.1631 21.8788L49.1664 21.8763Z" fill="#170F49"/>
<path d="M103.493 3.76966L91.9323 0.142819C91.3253 -0.0476064 90.6746 -0.0476064 90.0677 0.142819L78.5066 3.76966C77.8311 3.98158 77.8311 4.93767 78.5066 5.1496L83.3175 6.65882V10.5C88.4391 8.21518 93.5607 8.21518 98.6824 10.5V6.65882L103.493 5.1496C104.169 4.93767 104.169 3.98158 103.493 3.76966Z" fill="url(#paint1_linear_2102_8238)"/>
<path d="M102.453 9.47526L102.157 6.15525L101.431 6.38125L101.156 9.47528C101.355 9.3946 101.576 9.34614 101.807 9.34614C102.039 9.34614 102.254 9.39455 102.453 9.47526Z" fill="url(#paint2_linear_2102_8238)"/>
<path d="M102.933 11.0124C102.933 10.3895 102.428 9.8845 101.805 9.8845C101.182 9.8845 100.677 10.3895 100.677 11.0124C100.677 11.2629 100.762 11.492 100.9 11.6791L100.462 14.2367C101.52 14.3115 102.461 13.7485 103.149 14.2367L102.711 11.6791C102.849 11.492 102.933 11.2629 102.933 11.0124Z" fill="url(#paint3_linear_2102_8238)"/>
<path d="M91.6565 26.4761C89.9907 26.4761 88.4438 26.2183 87.0159 25.7026C85.6078 25.1672 84.3782 24.4135 83.3271 23.4418C82.2959 22.47 81.4927 21.3198 80.9176 19.991C80.3424 18.6623 80.0549 17.1947 80.0549 15.5884C80.0549 13.982 80.3424 12.5144 80.9176 11.1857C81.4927 9.85694 82.2959 8.70669 83.3271 7.73493C84.3782 6.76316 85.6078 6.01947 87.0159 5.50384C88.4438 4.96838 89.9907 4.70065 91.6565 4.70065C93.6992 4.70065 95.5039 5.05762 97.0706 5.77157C98.6572 6.48552 99.9661 7.51678 100.997 8.86534L96.5649 12.8218C95.9501 12.0484 95.2659 11.4534 94.5123 11.0369C93.7785 10.6006 92.9456 10.3825 92.0135 10.3825C91.2797 10.3825 90.6154 10.5015 90.0204 10.7395C89.4254 10.9774 88.9098 11.3245 88.4735 11.7806C88.057 12.2368 87.7298 12.7921 87.4918 13.4465C87.2538 14.0811 87.1349 14.7951 87.1349 15.5884C87.1349 16.3816 87.2538 17.1055 87.4918 17.7599C87.7298 18.3946 88.057 18.9399 88.4735 19.3961C88.9098 19.8522 89.4254 20.1993 90.0204 20.4373C90.6154 20.6752 91.2797 20.7942 92.0135 20.7942C92.9456 20.7942 93.7785 20.586 94.5123 20.1695C95.2659 19.7332 95.9501 19.1283 96.5649 18.3549L100.997 22.3114C99.9661 23.6401 98.6572 24.6714 97.0706 25.4051C95.5039 26.1191 93.6992 26.4761 91.6565 26.4761Z" fill="#170F49"/>
<path d="M104.214 26.0001V5.17661H111.235V20.5562H120.635V26.0001H104.214Z" fill="#170F49"/>
<path d="M121.794 26.0001L130.897 5.17661H137.798L146.901 26.0001H139.643L132.92 8.50837H135.656L128.933 26.0001H121.794ZM127.208 22.3709L128.993 17.3137H138.572L140.357 22.3709H127.208Z" fill="#170F49"/>
<path d="M156.976 26.4761C155.23 26.4761 153.545 26.2777 151.918 25.8811C150.292 25.4845 148.954 24.9688 147.902 24.3342L150.163 19.2176C151.155 19.7927 152.256 20.2588 153.465 20.6157C154.695 20.9529 155.885 21.1215 157.035 21.1215C157.709 21.1215 158.235 21.0818 158.612 21.0025C159.008 20.9033 159.296 20.7744 159.474 20.6157C159.653 20.4373 159.742 20.229 159.742 19.991C159.742 19.6142 159.534 19.3168 159.117 19.0986C158.701 18.8804 158.146 18.702 157.452 18.5631C156.777 18.4045 156.034 18.2458 155.22 18.0872C154.407 17.9087 153.584 17.6806 152.751 17.403C151.938 17.1253 151.185 16.7584 150.491 16.3023C149.816 15.8462 149.271 15.2512 148.854 14.5174C148.438 13.7638 148.23 12.8317 148.23 11.7211C148.23 10.4321 148.587 9.26198 149.301 8.21089C150.034 7.13997 151.115 6.2872 152.543 5.65258C153.991 5.01796 155.786 4.70065 157.928 4.70065C159.336 4.70065 160.724 4.84939 162.092 5.14686C163.461 5.44434 164.69 5.90048 165.781 6.51526L163.669 11.6021C162.638 11.0865 161.636 10.6998 160.664 10.442C159.712 10.1842 158.78 10.0553 157.868 10.0553C157.194 10.0553 156.658 10.1148 156.262 10.2337C155.865 10.3527 155.577 10.5114 155.399 10.7097C155.24 10.908 155.161 11.1262 155.161 11.3642C155.161 11.7211 155.369 12.0087 155.786 12.2268C156.202 12.4252 156.748 12.5937 157.422 12.7326C158.116 12.8714 158.87 13.0201 159.683 13.1788C160.516 13.3374 161.339 13.5556 162.152 13.8332C162.965 14.1109 163.708 14.4778 164.383 14.9339C165.077 15.39 165.632 15.985 166.049 16.7188C166.465 17.4526 166.673 18.3648 166.673 19.4556C166.673 20.7248 166.306 21.8949 165.573 22.9658C164.859 24.0169 163.788 24.8697 162.36 25.5241C160.932 26.1588 159.137 26.4761 156.976 26.4761Z" fill="#170F49"/>
<path d="M177.717 26.4761C175.971 26.4761 174.286 26.2777 172.659 25.8811C171.033 25.4845 169.695 24.9688 168.643 24.3342L170.904 19.2176C171.896 19.7927 172.997 20.2588 174.206 20.6157C175.436 20.9529 176.626 21.1215 177.776 21.1215C178.45 21.1215 178.976 21.0818 179.353 21.0025C179.749 20.9033 180.037 20.7744 180.215 20.6157C180.394 20.4373 180.483 20.229 180.483 19.991C180.483 19.6142 180.275 19.3168 179.858 19.0986C179.442 18.8804 178.887 18.702 178.193 18.5631C177.518 18.4045 176.775 18.2458 175.961 18.0872C175.148 17.9087 174.325 17.6806 173.492 17.403C172.679 17.1253 171.926 16.7584 171.232 16.3023C170.557 15.8462 170.012 15.2512 169.595 14.5174C169.179 13.7638 168.971 12.8317 168.971 11.7211C168.971 10.4321 169.328 9.26198 170.042 8.21089C170.775 7.13997 171.856 6.2872 173.284 5.65258C174.732 5.01796 176.527 4.70065 178.668 4.70065C180.077 4.70065 181.465 4.84939 182.833 5.14686C184.202 5.44434 185.431 5.90048 186.522 6.51526L184.41 11.6021C183.379 11.0865 182.377 10.6998 181.405 10.442C180.453 10.1842 179.521 10.0553 178.609 10.0553C177.935 10.0553 177.399 10.1148 177.003 10.2337C176.606 10.3527 176.318 10.5114 176.14 10.7097C175.981 10.908 175.902 11.1262 175.902 11.3642C175.902 11.7211 176.11 12.0087 176.527 12.2268C176.943 12.4252 177.488 12.5937 178.163 12.7326C178.857 12.8714 179.611 13.0201 180.424 13.1788C181.257 13.3374 182.08 13.5556 182.893 13.8332C183.706 14.1109 184.449 14.4778 185.124 14.9339C185.818 15.39 186.373 15.985 186.79 16.7188C187.206 17.4526 187.414 18.3648 187.414 19.4556C187.414 20.7248 187.047 21.8949 186.314 22.9658C185.6 24.0169 184.529 24.8697 183.101 25.5241C181.673 26.1588 179.878 26.4761 177.717 26.4761Z" fill="#170F49"/>
<defs>
<linearGradient id="paint0_linear_2102_8238" x1="93.7072" y1="0" x2="93.7072" y2="26.4761" gradientUnits="userSpaceOnUse">
<stop stop-color="#FF71A0"/>
<stop offset="1" stop-color="#FF4682"/>
</linearGradient>
<linearGradient id="paint1_linear_2102_8238" x1="-73.0666" y1="-81.0886" x2="217.195" y2="-41.1772" gradientUnits="userSpaceOnUse">
<stop stop-color="#3F2DAF"/>
<stop offset="1" stop-color="#917FFB"/>
</linearGradient>
<linearGradient id="paint2_linear_2102_8238" x1="93.7072" y1="0" x2="93.7072" y2="26.4761" gradientUnits="userSpaceOnUse">
<stop stop-color="#FF71A0"/>
<stop offset="1" stop-color="#FF4682"/>
</linearGradient>
<linearGradient id="paint3_linear_2102_8238" x1="93.7072" y1="0" x2="93.7072" y2="26.4761" gradientUnits="userSpaceOnUse">
<stop stop-color="#FF71A0"/>
<stop offset="1" stop-color="#FF4682"/>
</linearGradient>
</defs>
</svg>
